HIERARCHY
ROOT Root
{
  OFFSET 0.0 0.0 0.0
  CHANNELS 6 Xposition Yposition Zposition Zrotation Yrotation Xrotation
  JOINT Hips
  {
    OFFSET 0.0 100.0 0.0
    CHANNELS 6 Xposition Yposition Zposition Zrotation Yrotation Xrotation
    JOINT Spine1
    {
      OFFSET -0.013727 5.003763 -0.053727
      CHANNELS 3 Zrotation Yrotation Xrotation
      JOINT Spine2
      {
        OFFSET -0.0 7.125301 -0.029825
        CHANNELS 3 Zrotation Yrotation Xrotation
        JOINT Chest
        {
          OFFSET -1e-06 7.550063 -0.815971
          CHANNELS 3 Zrotation Yrotation Xrotation
          JOINT Neck1
          {
            OFFSET -0.181677 26.311295 -0.553348
            CHANNELS 3 Zrotation Yrotation Xrotation
            JOINT Neck2
            {
              OFFSET -3e-06 7.709397 2.302585
              CHANNELS 3 Zrotation Yrotation Xrotation
              JOINT Head
              {
                OFFSET -5e-06 6.128916 1.953709
                CHANNELS 3 Zrotation Yrotation Xrotation
                JOINT HeadEnd
                {
                  OFFSET 0.003598 16.065403 -1.835379
                  CHANNELS 3 Zrotation Yrotation Xrotation
                }
                JOINT Jaw
                {
                  OFFSET 0.002637 0.475592 3.094941
                  CHANNELS 3 Zrotation Yrotation Xrotation
                }
                JOINT LeftEye
                {
                  OFFSET 3.206381 5.380205 7.586883
                  CHANNELS 3 Zrotation Yrotation Xrotation
                }
                JOINT RightEye
                {
                  OFFSET -3.22244 5.361869 7.558234
                  CHANNELS 3 Zrotation Yrotation Xrotation
                }
              }
            }
          }
          JOINT LeftShoulder
          {
            OFFSET 1.621652 23.237164 5.113413
            CHANNELS 3 Zrotation Yrotation Xrotation
            JOINT LeftArm
            {
              OFFSET 14.919846 2e-06 -5.502326
              CHANNELS 3 Zrotation Yrotation Xrotation
              JOINT LeftForeArm
              {
                OFFSET 28.739307 0.0 -0.002588
                CHANNELS 3 Zrotation Yrotation Xrotation
                JOINT LeftHand
                {
                  OFFSET 27.093981 -1e-06 0.002609
                  CHANNELS 3 Zrotation Yrotation Xrotation
                  JOINT LeftHandThumb1
                  {
                    OFFSET 2.276482 -1.392045 3.191413
                    CHANNELS 3 Zrotation Yrotation Xrotation
                    JOINT LeftHandThumb2
                    {
                      OFFSET 4.012836 -1.828127 1.641654
                      CHANNELS 3 Zrotation Yrotation Xrotation
                      JOINT LeftHandThumb3
                      {
                        OFFSET 2.798515 0.0 -3e-06
                        CHANNELS 3 Zrotation Yrotation Xrotation
                        JOINT LeftHandThumbEnd
                        {
                          OFFSET 3.180793 -4e-06 4e-06
                          CHANNELS 3 Zrotation Yrotation Xrotation
                        }
                      }
                    }
                  }
                  JOINT LeftHandIndex1
                  {
                    OFFSET 3.247555 -0.531998 2.296169
                    CHANNELS 3 Zrotation Yrotation Xrotation
                    JOINT LeftHandIndex2
                    {
                      OFFSET 6.364578 0.01206 0.1786
                      CHANNELS 3 Zrotation Yrotation Xrotation
                      JOINT LeftHandIndex3
                      {
                        OFFSET 3.662364 0.0 0.0
                        CHANNELS 3 Zrotation Yrotation Xrotation
                        JOINT LeftHandIndex4
                        {
                          OFFSET 2.329242 4e-06 4e-06
                          CHANNELS 3 Zrotation Yrotation Xrotation
                          JOINT LeftHandIndexEnd
                          {
                            OFFSET 2.759615 -0.180537 -0.113024
                            CHANNELS 3 Zrotation Yrotation Xrotation
                          }
                        }
                      }
                    }
                  }
                  JOINT LeftHandMiddle1
                  {
                    OFFSET 3.163495 0.240981 1.000332
                    CHANNELS 3 Zrotation Yrotation Xrotation
                    JOINT LeftHandMiddle2
                    {
                      OFFSET 6.19078 -0.259278 -1.002548
                      CHANNELS 3 Zrotation Yrotation Xrotation
                      JOINT LeftHandMiddle3
                      {
                        OFFSET 4.35652 -4e-06 -1e-06
                        CHANNELS 3 Zrotation Yrotation Xrotation
                        JOINT LeftHandMiddle4
                        {
                          OFFSET 2.996877 -8e-06 0.0
                          CHANNELS 3 Zrotation Yrotation Xrotation
                          JOINT LeftHandMiddleEnd
                          {
                            OFFSET 2.304287 -0.294569 -0.031741
                            CHANNELS 3 Zrotation Yrotation Xrotation
                          }
                        }
                      }
                    }
                  }
                  JOINT LeftHandRing1
                  {
                    OFFSET 2.882643 -0.053652 -0.322543
                    CHANNELS 3 Zrotation Yrotation Xrotation
                    JOINT LeftHandRing2
                    {
                      OFFSET 5.854541 -0.486202 -1.373841
                      CHANNELS 3 Zrotation Yrotation Xrotation
                      JOINT LeftHandRing3
                      {
                        OFFSET 4.350578 0.0 3e-06
                        CHANNELS 3 Zrotation Yrotation Xrotation
                        JOINT LeftHandRing4
                        {
                          OFFSET 2.651321 7e-06 2e-06
                          CHANNELS 3 Zrotation Yrotation Xrotation
                          JOINT LeftHandRingEnd
                          {
                            OFFSET 1.936105 0.077687 -7.1e-05
                            CHANNELS 3 Zrotation Yrotation Xrotation
                          }
                        }
                      }
                    }
                  }
                  JOINT LeftHandPinky1
                  {
                    OFFSET 2.8655 -0.310005 -1.600378
                    CHANNELS 3 Zrotation Yrotation Xrotation
                    JOINT LeftHandPinky2
                    {
                      OFFSET 5.087849 -1.331141 -1.77123
                      CHANNELS 3 Zrotation Yrotation Xrotation
                      JOINT LeftHandPinky3
                      {
                        OFFSET 3.070974 4e-06 0.0
                        CHANNELS 3 Zrotation Yrotation Xrotation
                        JOINT LeftHandPinky4
                        {
                          OFFSET 1.549672 0.0 1e-06
                          CHANNELS 3 Zrotation Yrotation Xrotation
                          JOINT LeftHandPinkyEnd
                          {
                            OFFSET 1.944893 -0.157802 0.057219
                            CHANNELS 3 Zrotation Yrotation Xrotation
                          }
                        }
                      }
                    }
                  }
                }
              }
            }
          }
          JOINT RightShoulder
          {
            OFFSET -1.380118 23.180309 5.214158
            CHANNELS 3 Zrotation Yrotation Xrotation
            JOINT RightArm
            {
              OFFSET -15.037196 1.2e-05 -5.545604
              CHANNELS 3 Zrotation Yrotation Xrotation
              JOINT RightForeArm
              {
                OFFSET -28.736639 2e-06 -0.002597
                CHANNELS 3 Zrotation Yrotation Xrotation
                JOINT RightHand
                {
                  OFFSET -27.133619 -0.0 0.002613
                  CHANNELS 3 Zrotation Yrotation Xrotation
                  JOINT RightHandThumb1
                  {
                    OFFSET -2.274032 -1.383988 3.163127
                    CHANNELS 3 Zrotation Yrotation Xrotation
                    JOINT RightHandThumb2
                    {
                      OFFSET -4.011429 -1.827466 1.640914
                      CHANNELS 3 Zrotation Yrotation Xrotation
                      JOINT RightHandThumb3
                      {
                        OFFSET -2.794935 -4e-06 -3e-06
                        CHANNELS 3 Zrotation Yrotation Xrotation
                        JOINT RightHandThumbEnd
                        {
                          OFFSET -3.183852 4e-06 1e-06
                          CHANNELS 3 Zrotation Yrotation Xrotation
                        }
                      }
                    }
                  }
                  JOINT RightHandIndex1
                  {
                    OFFSET -3.253266 -0.520057 2.282866
                    CHANNELS 3 Zrotation Yrotation Xrotation
                    JOINT RightHandIndex2
                    {
                      OFFSET -6.341917 0.012471 0.178266
                      CHANNELS 3 Zrotation Yrotation Xrotation
                      JOINT RightHandIndex3
                      {
                        OFFSET -3.654871 -8e-06 -0.0
                        CHANNELS 3 Zrotation Yrotation Xrotation
                        JOINT RightHandIndex4
                        {
                          OFFSET -2.327586 0.0 1e-06
                          CHANNELS 3 Zrotation Yrotation Xrotation
                          JOINT RightHandIndexEnd
                          {
                            OFFSET -2.76179 -0.180656 -0.113078
                            CHANNELS 3 Zrotation Yrotation Xrotation
                          }
                        }
                      }
                    }
                  }
                  JOINT RightHandMiddle1
                  {
                    OFFSET -3.168106 0.246593 1.00103
                    CHANNELS 3 Zrotation Yrotation Xrotation
                    JOINT RightHandMiddle2
                    {
                      OFFSET -6.180828 -0.258836 -1.000895
                      CHANNELS 3 Zrotation Yrotation Xrotation
                      JOINT RightHandMiddle3
                      {
                        OFFSET -4.348901 0.0 -0.0
                        CHANNELS 3 Zrotation Yrotation Xrotation
                        JOINT RightHandMiddle4
                        {
                          OFFSET -3.00024 -4e-06 -2e-06
                          CHANNELS 3 Zrotation Yrotation Xrotation
                          JOINT RightHandMiddleEnd
                          {
                            OFFSET -2.30252 -0.29437 -0.031706
                            CHANNELS 3 Zrotation Yrotation Xrotation
                          }
                        }
                      }
                    }
                  }
                  JOINT RightHandRing1
                  {
                    OFFSET -2.88569 -0.067952 -0.308858
                    CHANNELS 3 Zrotation Yrotation Xrotation
                    JOINT RightHandRing2
                    {
                      OFFSET -5.854198 -0.48613 -1.373731
                      CHANNELS 3 Zrotation Yrotation Xrotation
                      JOINT RightHandRing3
                      {
                        OFFSET -4.33881 -4e-06 -0.0
                        CHANNELS 3 Zrotation Yrotation Xrotation
                        JOINT RightHandRing4
                        {
                          OFFSET -2.654903 -4e-06 4e-06
                          CHANNELS 3 Zrotation Yrotation Xrotation
                          JOINT RightHandRingEnd
                          {
                            OFFSET -1.933568 0.077527 -5.2e-05
                            CHANNELS 3 Zrotation Yrotation Xrotation
                          }
                        }
                      }
                    }
                  }
                  JOINT RightHandPinky1
                  {
                    OFFSET -2.866425 -0.342796 -1.584145
                    CHANNELS 3 Zrotation Yrotation Xrotation
                    JOINT RightHandPinky2
                    {
                      OFFSET -5.091371 -1.332055 -1.772385
                      CHANNELS 3 Zrotation Yrotation Xrotation
                      JOINT RightHandPinky3
                      {
                        OFFSET -3.062664 -4e-06 1e-06
                        CHANNELS 3 Zrotation Yrotation Xrotation
                        JOINT RightHandPinky4
                        {
                          OFFSET -1.546529 4e-06 -2e-06
                          CHANNELS 3 Zrotation Yrotation Xrotation
                          JOINT RightHandPinkyEnd
                          {
                            OFFSET -1.945119 -0.157718 0.057211
                            CHANNELS 3 Zrotation Yrotation Xrotation
                          }
                        }
                      }
                    }
                  }
                }
              }
            }
          }
        }
      }
    }
    JOINT LeftLeg
    {
      OFFSET 10.043214 -8.434526 2.595655
      CHANNELS 3 Zrotation Yrotation Xrotation
      JOINT LeftShin
      {
        OFFSET -1e-06 -43.221752 -0.802913
        CHANNELS 3 Zrotation Yrotation Xrotation
        JOINT LeftFoot
        {
          OFFSET 1e-06 -42.155094 -3.481523
          CHANNELS 3 Zrotation Yrotation Xrotation
          JOINT LeftToeBase
          {
            OFFSET 0.0 -5.059472 13.231529
            CHANNELS 3 Zrotation Yrotation Xrotation
            JOINT LeftToeEnd
            {
              OFFSET -0.009607 -1.647619 6.513017
              CHANNELS 3 Zrotation Yrotation Xrotation
            }
          }
        }
      }
    }
    JOINT RightLeg
    {
      OFFSET -10.047278 -8.29526 2.620317
      CHANNELS 3 Zrotation Yrotation Xrotation
      JOINT RightShin
      {
        OFFSET 1e-06 -43.362206 -0.805556
        CHANNELS 3 Zrotation Yrotation Xrotation
        JOINT RightFoot
        {
          OFFSET 2e-06 -42.117393 -3.478398
          CHANNELS 3 Zrotation Yrotation Xrotation
          JOINT RightToeBase
          {
            OFFSET -0.0 -5.079609 13.284196
            CHANNELS 3 Zrotation Yrotation Xrotation
            JOINT RightToeEnd
            {
              OFFSET 0.009532 -1.634378 6.460591
              CHANNELS 3 Zrotation Yrotation Xrotation
            }
          }
        }
      }
    }
  }
}
MOTION
Frames: 4
Frame Time: 0.03333333333333333
0.0 0.0 0.0 0.0 -0.0 0.0 7.526399 98.066277 -116.984406 0.236093 4.991085 -0.79219 0.14392 -0.22806 1.709135 -0.613273 -0.07532 -3.700222 -1.672003 -1.80355 10.264089 3.163383 1.587137 -5.624344 -1.208377 -1.068431 -3.406598 0.570152 -2.121999 -13.287822 7.7e-05 -2.2e-05 7e-06 -0.001255 -0.037178 0.048545 0.646887 -3.788123 -10.463666 -0.650607 3.71305 -10.45481 -10.629395 -6.805577 7.285686 -68.81501 -5.985935 1.491761 0.187682 -25.879333 -0.201791 8.462344 2.322131 -10.840748 -5.88211 9.861289 0.70259 -10.936878 -0.360574 7.156212 0.0 8.774828 -1e-06 -15.572831 17.837502 6.144583 -1.844033 2.498505 -2.507279 -10.163607 4.678947 4.621112 -20.976038 -2e-06 3e-06 -21.226301 2.451698 -3.594002 1e-06 -6e-06 -1e-06 -1.362682 2.240798 -0.746324 -21.334929 0.584911 3.008327 -13.821223 -1e-06 2e-06 -23.887188 -0.249078 -0.839482 -59.720306 2.519347 -1.165346 -0.294025 1.679688 0.833256 -14.218219 0.093214 1.300582 -34.212074 -0.287561 0.967173 -20.03323 0.964539 1.212845 1e-06 1e-06 -0.0 -3.440391 0.788233 0.501656 -15.9282 -3.167311 2.99971 -6.33883 1e-06 2e-06 -18.123457 3.648185 -4.905672 -4e-06 0.0 -2e-06 16.558733 10.249602 8.402075 64.054253 11.958668 16.927155 0.907104 20.223145 0.240591 0.041768 1.173775 -10.603539 2.243541 -5.255033 -3.180156 14.282887 -0.826595 6.952502 -3e-06 -12.690599 1e-06 16.258101 -17.501587 2.590263 1.665666 -1.955921 -2.878299 4.727798 -4.170586 4.993924 11.020523 3e-06 2e-06 12.10905 -3.735714 -2.866783 -1e-06 -0.0 -0.0 1.291985 -1.928548 -1.49809 14.800125 0.567469 3.865608 14.242569 -1.341736 -6.660655 19.631962 0.143925 -0.648244 49.599216 -0.407015 -6.301485 0.353029 -1.51115 -0.03194 20.222786 3.684308 2.31663 18.78727 4e-06 0.0 10.751627 -0.479869 1.397905 -0.0 0.0 1e-06 3.273806 0.305948 -0.580109 21.486809 11.830369 2.266132 8.162928 1e-06 1e-06 18.399076 -3.798984 -4.940573 3e-06 1e-06 -1e-06 0.629671 6.046704 9.264481 -0.134137 -0.232592 11.897798 0.0592 -5.662329 -12.855767 1.803285 -2.100892 -1.321055 0.0 -0.0 2e-06 0.365408 -3.200257 -21.533184 -0.022645 -0.019464 12.14027 2.501338 1.696607 10.496231 -1.444985 1.033327 0.880983 -0.0 -0.0 -1e-06 
0.0 0.0 0.0 0.0 -0.0 0.0 8.106015 98.13176 -119.861412 0.0696 3.670547 -0.397046 -0.14407 -0.011323 2.08524 -0.639194 -0.155446 -3.616829 -1.155652 -1.794146 10.129701 3.274402 1.696203 -5.83705 -0.936119 -0.916416 -3.453454 0.280734 -1.858278 -13.548175 7.7e-05 -2.3e-05 6e-06 0.003726 -0.018892 0.078296 0.670586 -3.768024 -10.467762 -0.664976 3.729511 -10.473908 -9.268517 -6.837464 7.128719 -70.0728 -6.821602 3.270119 0.098184 -27.565659 -0.12555 7.969533 2.354097 -10.379946 -5.882104 9.861284 0.70259 -10.936866 -0.360574 7.156202 -1e-06 8.774824 -1e-06 -15.65831 17.910313 6.149617 -1.844031 2.498505 -2.507276 -10.163594 4.678946 4.621106 -20.976013 -2e-06 1e-06 -21.226276 2.451698 -3.594001 1e-06 -6e-06 -0.0 -1.362681 2.240798 -0.746323 -21.334902 0.584911 3.008322 -13.821206 -1e-06 1e-06 -23.887157 -0.249078 -0.839484 -59.892509 2.582102 -1.140988 -0.294024 1.679687 0.833256 -14.218199 0.093215 1.30058 -34.212029 -0.28756 0.967167 -20.033201 0.964538 1.212841 0.0 0.0 -0.0 -3.440387 0.788235 0.501655 -15.928179 -3.167309 2.999706 -6.338822 0.0 1e-06 -18.12344 3.648185 -4.905671 -3e-06 0.0 -2e-06 16.248358 10.629395 8.392728 64.019646 11.784856 15.96125 0.860538 19.219711 0.282744 0.023225 0.930599 -10.248538 2.243544 -5.255038 -3.18016 14.2829 -0.826598 6.952506 -1e-06 -12.690609 2e-06 16.18922 -17.56991 2.587532 1.665667 -1.955922 -2.878301 4.727802 -4.17059 4.993928 11.020534 1e-06 -2e-06 12.109061 -3.735716 -2.866786 -1e-06 -0.0 0.0 1.291987 -1.92855 -1.49809 14.800136 0.567466 3.86561 14.242582 -1.341737 -6.660662 19.631977 0.143925 -0.648248 49.753689 -0.338112 -6.322846 0.353029 -1.511152 -0.03194 20.222803 3.684307 2.316631 18.787287 2e-06 -1e-06 10.751637 -0.479869 1.397906 -1e-06 0.0 0.0 3.273809 0.305947 -0.580111 21.486824 11.830378 2.266132 8.162933 0.0 -2e-06 18.399092 -3.798987 -4.940578 4e-06 1e-06 -0.0 0.02387 7.337551 6.144989 -0.122848 -0.199472 13.652825 0.481056 -4.975289 -14.414469 1.729707 -2.051377 -0.048907 -0.0 -0.0 2e-06 0.158115 -3.720491 -21.247047 0.161757 -0.017915 6.860806 7.812573 3.980415 13.983621 -1.399173 1.083074 -0.006253 0.0 0.0 -1e-06 
0.0 0.0 0.0 0.0 -0.0 0.0 8.561031 98.273521 -122.438049 0.045142 2.245844 -0.197437 -0.541947 0.053196 2.33446 -0.670186 0.006569 -3.504714 -0.710733 -1.69393 10.133501 3.425169 1.520519 -6.181155 -0.771551 -0.44221 -3.474663 0.268591 -1.597496 -13.864028 7.7e-05 -2.2e-05 6e-06 0.018502 0.023398 0.101466 0.689286 -3.720661 -10.453298 -0.654053 3.76861 -10.457252 -8.726725 -6.900178 6.980425 -70.080742 -7.056514 6.004431 0.017589 -29.487444 -0.033399 7.472103 2.161969 -10.574935 -5.882105 9.861285 0.70259 -10.93687 -0.360575 7.156205 0.0 8.774827 -2e-06 -15.558715 17.882782 6.241689 -1.844032 2.498505 -2.507277 -10.163599 4.678945 4.621109 -20.976021 -4e-06 3e-06 -21.226286 2.451697 -3.594 0.0 -6e-06 0.0 -1.362681 2.240798 -0.746323 -21.334911 0.584909 3.008323 -13.821213 -3e-06 1e-06 -23.887167 -0.249077 -0.839483 -59.883022 2.543705 -1.001704 -0.294025 1.679688 0.833256 -14.218206 0.093215 1.300581 -34.212048 -0.287564 0.96717 -20.033211 0.964536 1.212843 1e-06 0.0 -1e-06 -3.440388 0.788234 0.501656 -15.928185 -3.16731 2.999708 -6.338825 -0.0 1e-06 -18.123444 3.648182 -4.905669 -5e-06 -0.0 -3e-06 16.662479 10.751926 8.285965 63.479507 11.189843 14.909823 0.59645 18.080454 0.214062 -0.32904 0.876938 -11.061573 2.243541 -5.255037 -3.180157 14.282889 -0.826595 6.952503 -2e-06 -12.690608 0.0 16.112402 -17.582573 2.727949 1.665666 -1.955922 -2.878298 4.727798 -4.170588 4.993924 11.020526 3e-06 -2e-06 12.109053 -3.735716 -2.866786 -1e-06 -0.0 -0.0 1.291986 -1.928549 -1.498088 14.800127 0.567467 3.865607 14.242569 -1.341738 -6.660657 19.631968 0.143925 -0.648244 49.799026 -0.438599 -6.142325 0.353029 -1.51115 -0.03194 20.222788 3.684309 2.316632 18.78727 4e-06 -1e-06 10.751626 -0.479869 1.397906 -2e-06 0.0 1e-06 3.273806 0.305947 -0.580111 21.486809 11.830376 2.266133 8.162928 2e-06 -0.0 18.39908 -3.798985 -4.940574 6e-06 1e-06 -1e-06 -0.612974 8.619286 3.513256 -0.088714 -0.142108 15.269665 0.932627 -4.403099 -14.82969 1.700602 -1.94229 0.795386 -0.0 0.0 2e-06 0.304459 -5.032057 -21.282894 0.162859 0.019626 4.679384 13.2755 4.210061 12.326755 -1.319651 1.143559 -0.770629 0.0 0.0 -1e-06 
0.0 0.0 0.0 0.0 -0.0 0.0 8.998569 98.602173 -124.821617 -0.05814 0.731874 -0.137293 -0.698358 0.054176 2.519277 -0.671801 0.23722 -3.341619 -0.452956 -1.59998 10.192986 3.497852 1.466472 -6.600982 -0.793505 -0.163702 -3.499814 0.319411 -1.174798 -14.304644 7.7e-05 -2.2e-05 7e-06 0.010433 -0.026225 0.093101 0.68714 -3.763375 -10.46069 -0.667616 3.713051 -10.470971 -8.721172 -6.788918 6.728966 -69.59375 -7.032413 8.302959 -0.056401 -30.972775 0.074821 6.873746 1.555089 -9.976485 -5.882111 9.861295 0.70259 -10.936878 -0.360574 7.156209 -1e-06 8.774833 -1e-06 -15.475211 17.851742 6.335581 -1.844034 2.498508 -2.507278 -10.163606 4.67895 4.621109 -20.976038 -2e-06 -1e-06 -21.226299 2.451701 -3.594005 1e-06 -6e-06 0.0 -1.362682 2.2408 -0.746324 -21.334929 0.584912 3.008323 -13.821221 -2e-06 -1e-06 -23.887188 -0.249079 -0.839486 -59.963058 2.555923 -0.85877 -0.294025 1.679688 0.833256 -14.218217 0.093218 1.300581 -34.21207 -0.287562 0.967166 -20.033224 0.964537 1.212842 1e-06 -0.0 -0.0 -3.440391 0.788235 0.501655 -15.928196 -3.167311 2.999708 -6.338831 -0.0 0.0 -18.123459 3.648187 -4.905678 -4e-06 1e-06 -2e-06 17.234705 10.942028 8.390661 62.98045 10.75977 13.435562 0.381705 16.370958 0.118468 -1.179729 0.823871 -12.678718 2.243542 -5.255038 -3.180158 14.282889 -0.826596 6.952502 -0.0 -12.690607 0.0 16.208202 -17.616165 2.741871 1.665666 -1.955921 -2.878298 4.727798 -4.170588 4.993923 11.020524 2e-06 -1e-06 12.109052 -3.735717 -2.866784 0.0 -0.0 -0.0 1.291986 -1.92855 -1.498089 14.800125 0.567467 3.865608 14.242571 -1.341739 -6.660659 19.631968 0.143925 -0.648246 49.924843 -0.468223 -6.007812 0.353029 -1.511151 -0.03194 20.222788 3.684309 2.316629 18.78727 3e-06 -3e-06 10.751627 -0.479869 1.397904 -0.0 -1e-06 1e-06 3.273806 0.305946 -0.580112 21.486809 11.830376 2.266133 8.162928 1e-06 -1e-06 18.399082 -3.798986 -4.940578 3e-06 -0.0 -1e-06 -1.196729 9.495509 1.55541 -0.04781 -0.063425 16.009598 1.516837 -3.764973 -14.057372 1.700528 -1.930769 1.118521 -0.0 0.0 2e-06 0.719574 -6.440138 -21.910278 0.106788 0.017775 6.953926 11.671208 2.80682 9.225588 -1.353742 1.057158 -1.265898 -0.0 -0.0 -1e-06 
